<?xml version="1.0" encoding="iso-8859-1"?>
<!-- Generator: Adobe Illustrator 16.0.0, SVG Export Plug-In . SVG Version: 6.00 Build 0)  -->
<!DOCTYPE svg PUBLIC "-//W3C//DTD SVG 1.1//EN" "http://www.w3.org/Graphics/SVG/1.1/DTD/svg11.dtd">
<svg version="1.1" id="Capa_1" xmlns="http://www.w3.org/2000/svg" xmlns:xlink="http://www.w3.org/1999/xlink" x="0px" y="0px"
	 width="601.239px" height="601.24px" viewBox="0 0 601.239 601.24" style="enable-background:new 0 0 601.239 601.24;"
	 xml:space="preserve">
<g>
	<path id="Fill-16" d="M593.397,437.623c-4.275,3.689-9.542,5.508-14.791,5.508
		c-6.354,0-12.671-2.664-17.145-7.854l-54.796-63.449l-107.833,23.617c-4.732,6-11.024,10.904-18.627,13.957l-83.249,33.393
		c-5.405,2.172-11.137,3.258-16.869,3.258c-4.68,0-9.37-0.725-13.895-2.182l-99.971-32.229l-11.757,61.459l75.811,34.09
		c11.404,5.129,16.498,18.541,11.369,29.945c-3.775,8.404-12.033,13.379-20.67,13.379c-3.103,0-6.258-0.646-9.275-2l-92.127-41.436
		c-9.568-4.301-14.93-14.611-12.956-24.92c0,0,21.136-123.607,23.152-129.873c7.681-23.824,33.204-36.883,57.011-29.229
		l91.619,29.547l68.07-27.307c2.456-0.982,4.947-1.689,7.456-2.225l18.316-92.816c0.741-3.758,2.405-7.258,4.861-10.188
		l70.312-83.698c8.06-9.567,22.334-10.817,31.91-2.767c9.576,8.042,10.817,22.325,2.775,31.91l-66.57,79.224l-18.282,92.644
		c2.732,3.096,5.068,6.611,6.922,10.49l105.945-23.195c8.137-1.775,16.566,1.035,22.006,7.328l63.604,73.654
		C603.914,415.132,602.854,429.433,593.397,437.623L593.397,437.623z M128.502,261.53c-3.732-35.384-35.436-61.045-70.82-57.321
		c-35.393,3.732-61.054,35.436-57.321,70.82c3.724,35.375,35.436,61.045,70.82,57.313S132.226,296.914,128.502,261.53
		L128.502,261.53z M352.477,143.793c25.626-2.698,44.211-25.661,41.504-51.296c-2.698-25.626-25.67-44.21-51.287-41.513
		c-25.636,2.698-44.211,25.669-41.513,51.296S326.85,146.5,352.477,143.793L352.477,143.793z"/>
</g>
</svg>
